<svg width="94" height="23" viewBox="0 0 94 23" fill="none" xmlns="http://www.w3.org/2000/svg">
<path d="M26.1766 3.61099H26.8195C27.0432 3.63864 27.2683 3.57219 27.4405 3.42772C27.6127 3.28324 27.7161 3.0739 27.7259 2.85034C27.7259 2.41028 27.3922 2.12601 26.8265 2.12601C26.5975 2.09424 26.3652 2.15571 26.1825 2.29646C25.9998 2.4372 25.8822 2.64527 25.8564 2.87338H25.1506C25.1752 2.45907 25.372 2.0735 25.6942 1.80887C26.0163 1.54424 26.4347 1.42433 26.8493 1.47781C27.7959 1.47781 28.4623 2.00378 28.4623 2.76092C28.4669 3.28361 28.1029 3.73843 27.589 3.85231V3.90853C28.2045 3.93563 28.6824 4.45128 28.6582 5.06239C28.614 5.48871 28.3987 5.8794 28.0609 6.1463C27.7231 6.41321 27.2912 6.53385 26.8627 6.481C26.4333 6.53912 25.9985 6.42159 25.658 6.15536C25.3175 5.88914 25.1006 5.49706 25.057 5.06904H25.7738C25.8171 5.52551 26.2396 5.81995 26.8627 5.81995C27.4859 5.81995 27.8927 5.48922 27.8927 5.02299C27.8927 4.55012 27.5095 4.25883 26.8399 4.25883H26.1766V3.61099Z" fill="white"/>
<path fill-rule="evenodd" clip-rule="evenodd" d="M31.2405 3.84202C30.3781 3.89513 29.8911 4.26882 29.8911 4.91701C29.8923 5.22435 30.0245 5.51684 30.2549 5.72217C30.4853 5.9275 30.7925 6.0265 31.1004 5.99471C31.5398 6.01487 31.9561 5.79888 32.1902 5.42932H32.2468V5.93538H32.9369V3.47498C32.9369 2.71432 32.4239 2.26489 31.5143 2.26489C30.6913 2.26489 30.1043 2.66161 30.0312 3.28013H30.7243C30.8046 3.02554 31.0808 2.87989 31.4805 2.87989C31.9706 2.87989 32.2232 3.09465 32.2232 3.47498V3.7858L31.2405 3.84202ZM32.223 4.30835V4.6094C32.2074 4.83892 32.0986 5.05229 31.9215 5.20069C31.7444 5.34908 31.5142 5.41978 31.2836 5.3966C30.8941 5.3966 30.6108 5.208 30.6108 4.88391C30.6108 4.56645 30.8374 4.39776 31.3371 4.36458L32.223 4.30835Z" fill="white"/>
<path d="M34.6358 2.86335V5.86612H33.9198V2.26514H36.3086V2.86331L34.6358 2.86335Z" fill="white"/>
<path fill-rule="evenodd" clip-rule="evenodd" d="M39.0315 5.98533C39.9473 5.98533 40.5303 5.26802 40.5303 4.12392C40.5303 2.97943 39.9473 2.26525 39.0244 2.26527C38.5508 2.2537 38.1107 2.50667 37.8851 2.92011H37.8316V2.32499H37.1423V7.12318H37.8583V5.38048H37.915C38.1369 5.7805 38.5724 6.01645 39.0315 5.98533ZM38.8244 2.90381C39.431 2.90381 39.7937 3.3634 39.7937 4.12405C39.7937 4.88782 39.431 5.34741 38.8212 5.34742C38.2217 5.34742 37.8448 4.87768 37.8448 4.12718C37.8448 3.37316 38.2217 2.90381 38.8244 2.90381Z" fill="white"/>
<path d="M41.5406 7.15587V6.54399C41.6181 6.55376 41.6962 6.5582 41.7743 6.55727C42.0901 6.58049 42.373 6.36389 42.4305 6.05472L42.484 5.87939L41.1708 2.26514H41.9505L42.8601 5.12538H42.9167L43.8231 2.26514H44.5824L43.2299 6.01489C42.9199 6.89112 42.5768 7.17227 41.8372 7.17227C41.7774 7.17227 41.6075 7.16563 41.5406 7.15587Z" fill="white"/>
<path d="M45.1991 4.92568H45.9119C45.982 5.24316 46.2818 5.4087 46.7011 5.4087C47.1779 5.4087 47.4706 5.20019 47.4706 4.8761C47.4706 4.52897 47.2078 4.36341 46.7011 4.36341H46.1582V3.81127H46.6917C47.1244 3.81127 47.3447 3.6461 47.3447 3.34505C47.3447 3.08069 47.1315 2.87882 46.6917 2.87882C46.2912 2.87882 45.9985 3.04751 45.952 3.33178H45.262C45.3694 2.65225 46.0052 2.18319 46.6917 2.2771C47.554 2.2771 48.0473 2.66406 48.0473 3.27243C48.0556 3.62155 47.8169 3.92889 47.4745 4.00965V4.06588C47.8839 4.11828 48.1889 4.4665 48.1843 4.87612C48.1843 5.56066 47.5973 6.01357 46.7011 6.01357C45.9088 6.01355 45.2652 5.65314 45.1991 4.92568Z" fill="white"/>
<path d="M49.2278 5.86612V2.26514H49.9375V4.74194H49.9941L51.6661 2.26514H52.3758V5.86613H51.6661V3.37606H51.6126L49.9375 5.86614L49.2278 5.86612Z" fill="white"/>
<path d="M56.2581 2.86331H55.1156V5.86608H54.3988V2.86331H53.2563V2.26514H56.2581V2.86331Z" fill="white"/>
<path fill-rule="evenodd" clip-rule="evenodd" d="M58.9761 6.00495C59.6852 6.08104 60.3475 5.64234 60.5489 4.96316L59.8589 4.96313C59.6872 5.26878 59.3466 5.44123 58.9965 5.39969C58.7263 5.40293 58.4672 5.29274 58.2832 5.09628C58.0992 4.89981 58.0074 4.63535 58.0303 4.36808V4.32825H60.5922V4.08027C60.5922 2.94949 59.9824 2.26495 58.9729 2.26495C58.4879 2.26085 58.025 2.46582 57.704 2.82677C57.3831 3.18772 57.2358 3.66913 57.3002 4.14627C57.234 4.6221 57.3819 5.10274 57.7046 5.46067C58.0274 5.81859 58.4923 6.01762 58.9761 6.00495ZM59.8619 3.80281H58.0302C58.0267 3.55442 58.1245 3.31518 58.3014 3.13949C58.4784 2.9638 58.7194 2.86659 58.9696 2.86997C59.2163 2.86452 59.4539 2.9627 59.6238 3.14034C59.7937 3.31798 59.8801 3.55855 59.8619 3.80281Z" fill="white"/>
<path fill-rule="evenodd" clip-rule="evenodd" d="M62.9246 2.26514H64.5603C65.27 2.26514 65.6863 2.62203 65.6863 3.18079C65.6885 3.54618 65.433 3.86334 65.0733 3.94144V3.99767C65.5134 4.02526 65.8544 4.39023 65.8491 4.82782C65.8491 5.4561 65.3731 5.8661 64.5769 5.8661H62.9246V2.26514ZM63.6342 2.81055V3.743H64.3439C64.7766 3.743 64.9835 3.57783 64.9835 3.27326C64.9835 2.99251 64.8034 2.81055 64.4233 2.81055L63.6342 2.81055ZM63.6343 5.3207V4.26562L64.3936 4.26563C64.8767 4.26563 65.1332 4.43432 65.1332 4.79473C65.1332 5.13522 64.9066 5.3207 64.4833 5.3207H63.6343Z" fill="white"/>
<path fill-rule="evenodd" clip-rule="evenodd" d="M30.3746 13.4608V14.9002H33.8391C33.7585 15.6999 33.4362 16.3397 33.0334 16.7395C32.5499 17.2194 31.7443 17.7792 30.3746 17.7792C28.1992 17.7792 26.5878 16.0998 26.5878 13.9406C26.5878 11.7814 28.2798 10.1021 30.3746 10.1021C31.5025 10.1021 32.3888 10.5819 33.0334 11.1417L34.0808 10.1021C33.1945 9.30236 32.0665 8.6626 30.4551 8.6626C27.5547 8.6626 25.057 11.0617 25.057 13.9406C25.057 16.8195 27.5547 19.2186 30.4551 19.2186C32.0665 19.2186 33.1945 18.7388 34.1613 17.6992C35.1282 16.7395 35.4504 15.3801 35.4504 14.3405C35.4504 14.0206 35.4504 13.7007 35.3699 13.4608H30.3746ZM39.3179 12.4214C37.3842 12.4214 35.8534 13.8608 35.8534 15.8601C35.8534 17.7794 37.3842 19.2988 39.3179 19.2988C41.2515 19.2988 42.7823 17.8593 42.7823 15.8601C42.7823 13.7809 41.2515 12.4214 39.3179 12.4214ZM43.3461 15.8601C43.3461 13.8608 44.8769 12.4214 46.8105 12.4214C48.7442 12.4214 50.275 13.7809 50.275 15.8601C50.275 17.8593 48.7442 19.2988 46.8105 19.2988C44.8769 19.2988 43.3461 17.7794 43.3461 15.8601ZM44.8771 15.7799C44.8771 16.9794 45.7634 17.8591 46.8108 17.8591C47.8582 17.8591 48.7445 16.9794 48.7445 15.7799C48.7445 14.5004 47.8582 13.7007 46.8108 13.7007C45.7634 13.7007 44.8771 14.5804 44.8771 15.7799ZM37.3842 15.78C37.3842 16.9796 38.2705 17.8592 39.3179 17.8592C40.3653 17.8592 41.2515 16.9796 41.2515 15.78C41.2515 14.5005 40.3653 13.7008 39.3179 13.7008C38.2705 13.7008 37.3842 14.5805 37.3842 15.78ZM64.0525 12.4214C65.825 12.4214 66.6307 13.7809 66.953 14.5806L67.1141 14.9804L62.5217 16.8997C62.9245 17.6194 63.4079 17.9393 64.2136 17.9393C65.0193 17.9393 65.5027 17.5395 65.9056 16.9797L67.0335 17.7794C66.7113 18.3391 65.7444 19.2988 64.2136 19.2988C62.28 19.2988 60.8297 17.7794 60.8297 15.8601C60.8297 13.7809 62.28 12.4214 64.0525 12.4214ZM62.2802 15.6999C62.2802 14.4204 63.3276 13.7007 64.0527 13.7007C64.6167 13.7007 65.1807 14.0206 65.3418 14.4204L62.2802 15.6999ZM60.0241 18.9786H58.4933V8.98242H60.0241V18.9786ZM56.0763 13.141C55.6734 12.7412 55.0289 12.3413 54.2232 12.3413C52.5312 12.3413 50.9199 13.8607 50.9199 15.78C50.9199 17.6993 52.4507 19.1387 54.2232 19.1387C55.0289 19.1387 55.6734 18.7389 55.9957 18.339H56.0763V18.8189C56.0763 20.0984 55.3512 20.8181 54.2232 20.8181C53.3369 20.8181 52.6924 20.1783 52.5312 19.6186L51.2421 20.1783C51.645 21.058 52.6118 22.1776 54.3038 22.1776C56.0763 22.1776 57.5265 21.138 57.5265 18.6589V12.5812H56.0763V13.141ZM52.3701 15.7799C52.3701 16.9794 53.2563 17.8591 54.3037 17.8591C55.3511 17.8591 56.1568 16.9794 56.1568 15.7799C56.1568 14.5804 55.3511 13.7007 54.3037 13.7007C53.2563 13.7007 52.3701 14.5804 52.3701 15.7799ZM73.9624 8.98242H70.3368V18.9786H71.8676V15.2201H73.9624C75.6544 15.2201 77.2657 14.0205 77.2657 12.1012C77.2657 10.182 75.6544 8.98242 73.9624 8.98242ZM71.8676 13.781H74.0429C75.0903 13.781 75.7349 12.9013 75.8154 12.0217C75.8154 11.3019 75.1709 10.3423 74.0429 10.3423H71.8676V13.781ZM83.3086 12.3413C82.1807 12.3413 81.0527 12.8211 80.6498 13.8607L82.0195 14.4205C82.3418 13.8607 82.8252 13.7008 83.3892 13.7008C84.1949 13.7008 84.92 14.1806 85.0006 14.9803V15.0603C84.7589 14.9003 84.1143 14.6604 83.4698 14.6604C82.0195 14.6604 80.5693 15.4601 80.5693 16.8996C80.5693 18.2591 81.7778 19.1387 83.0669 19.1387C84.1143 19.1387 84.5977 18.6589 85.0006 18.1791H85.0812V18.9788H86.5314V15.1403C86.3703 13.3809 85.0006 12.3413 83.3086 12.3413ZM81.9388 16.9795C81.9388 17.6193 82.664 17.8592 83.1474 17.8592C83.9531 17.8592 84.7588 17.2195 84.9199 16.2598C84.8792 16.2437 84.8393 16.2275 84.7999 16.2115C84.4487 16.0692 84.1297 15.9399 83.5502 15.9399C82.8251 15.9399 81.9388 16.1799 81.9388 16.9795ZM91.6073 12.5812L89.9153 16.8995H89.8348L88.0623 12.5812H86.4509L89.1096 18.6589L87.5788 22.0176H89.1096L93.2187 12.5812H91.6073ZM79.6025 18.9786H78.0717V8.98242H79.6025V18.9786Z" fill="white"/>
<path d="M0.402724 0.265869C0.161016 0.505778 -0.00012207 0.905627 -0.00012207 1.38545V19.0588C-0.00012207 19.5386 0.161016 19.9384 0.402724 20.1783L0.483293 20.2583L10.4739 10.3421V10.2621V10.1821L0.402724 0.265869Z" fill="url(#paint0_linear_3913_2722)"/>
<path d="M13.7773 13.7008L10.474 10.422V10.2621V10.1821L13.7773 6.90332L13.8579 6.98329L17.8058 9.22244C18.9338 9.8622 18.9338 10.9018 17.8058 11.5416L13.7773 13.7008Z" fill="url(#paint1_linear_3913_2722)"/>
<path d="M13.8578 13.6208L10.4739 10.2621L0.40271 20.2583C0.805556 20.6582 1.36954 20.6582 2.09466 20.3383L13.8578 13.6208Z" fill="url(#paint2_linear_3913_2722)"/>
<path d="M13.8578 6.9033L2.09466 0.265811C1.36954 -0.134038 0.805556 -0.0540684 0.40271 0.34578L10.4739 10.262L13.8578 6.9033Z" fill="url(#paint3_linear_3913_2722)"/>
<path opacity="0.2" d="M13.7772 13.5408L2.09466 20.0983C1.45011 20.4981 0.886125 20.4182 0.483279 20.0983L0.40271 20.1783L0.483279 20.2582C0.886125 20.5781 1.45011 20.6581 2.09466 20.2582L13.7772 13.5408Z" fill="black"/>
<path opacity="0.12" d="M0.402721 20.0983C0.161014 19.8584 0.0804443 19.4586 0.0804443 18.9788V19.0587C0.0804443 19.5385 0.241583 19.9384 0.483291 20.1783V20.0983H0.402721Z" fill="black"/>
<path opacity="0.12" d="M17.8057 11.3016L13.7772 13.5407L13.8578 13.6207L17.8057 11.3815C18.3697 11.0617 18.6114 10.6618 18.6114 10.262C18.6114 10.6618 18.2891 10.9817 17.8057 11.3016Z" fill="black"/>
<path opacity="0.25" d="M2.09468 0.345789L17.8057 9.22243C18.2891 9.54231 18.6114 9.86219 18.6114 10.262C18.6114 9.86219 18.3697 9.46234 17.8057 9.14246L2.09468 0.265819C0.966706 -0.373939 0.0804443 0.185849 0.0804443 1.46537V1.54534C0.0804443 0.265819 0.966706 -0.29397 2.09468 0.345789Z" fill="white"/>
<defs>
<linearGradient id="paint0_linear_3913_2722" x1="6.0718" y1="-11.6714" x2="-9.91907" y2="-7.31505" gradientUnits="userSpaceOnUse">
<stop stop-color="#00A0FF"/>
<stop offset="0.00657445" stop-color="#00A1FF"/>
<stop offset="0.2601" stop-color="#00BEFF"/>
<stop offset="0.5122" stop-color="#00D2FF"/>
<stop offset="0.7604" stop-color="#00DFFF"/>
<stop offset="1" stop-color="#00E3FF"/>
</linearGradient>
<linearGradient id="paint1_linear_3913_2722" x1="19.2838" y1="2.16087" x2="-0.211497" y2="2.16087" gradientUnits="userSpaceOnUse">
<stop stop-color="#FFE000"/>
<stop offset="0.4087" stop-color="#FFBD00"/>
<stop offset="0.7754" stop-color="#FFA500"/>
<stop offset="1" stop-color="#FF9C00"/>
</linearGradient>
<linearGradient id="paint2_linear_3913_2722" x1="0.147111" y1="5.07527" x2="-12.5748" y2="26.5942" gradientUnits="userSpaceOnUse">
<stop stop-color="#FF3A44"/>
<stop offset="1" stop-color="#C31162"/>
</linearGradient>
<linearGradient id="paint3_linear_3913_2722" x1="-7.42644" y1="-2.46948" x2="-1.7907" y2="7.15232" gradientUnits="userSpaceOnUse">
<stop stop-color="#32A071"/>
<stop offset="0.0685" stop-color="#2DA771"/>
<stop offset="0.4762" stop-color="#15CF74"/>
<stop offset="0.8009" stop-color="#06E775"/>
<stop offset="1" stop-color="#00F076"/>
</linearGradient>
</defs>
</svg>
